<?xml version="1.0" encoding="utf-8"?>
<!-- Generator: Adobe Illustrator 18.1.1, SVG Export Plug-In . SVG Version: 6.00 Build 0)  -->
<svg version="1.1" xmlns="http://www.w3.org/2000/svg" xmlns:xlink="http://www.w3.org/1999/xlink" x="0px" y="0px"
	 viewBox="0 0 2952 936" enable-background="new 0 0 2952 936" xml:space="preserve">
<g id="Layer_1">
	<path fill="#1BB1AE" d="M614.8,560.3c-33.6,0-60.8,37.8-60.8,84.2c0,46.5,27.2,84.3,60.8,84.3c33.6,0,60.8-37.8,60.8-84.3
		C675.6,598,648.4,560.3,614.8,560.3z M826.6,341.1c7-17.1,7.3-114.1-29.7-207.1c0,0-84.8,9.3-213,97.3
		c-26.9-7.5-72.4-11.1-117.9-11.1c-45.5,0-91,3.7-117.9,11.1c-128.3-88-213-97.3-213-97.3C98.2,227,98.5,324,105.4,341.1
		c-43.4,47.2-70,103.8-70,181.2c0,336.3,279.1,341.7,349.5,341.7c16,0,47.6,0.1,81.2,0.1c33.5,0,65.1-0.1,81.1-0.1
		c70.5,0,349.5-5.4,349.5-341.7C896.6,444.9,870.1,388.3,826.6,341.1z M467.3,822.6h-2.6c-176.5,0-314-21-314-192.6
		c0-41.1,14.5-79.2,49-110.9c57.4-52.7,154.7-24.9,265-24.9c0.5,0,0.9,0,1.4,0c0.5,0,0.8,0,1.3,0c110.3,0,207.6-27.9,265.1,24.9
		c34.4,31.6,48.9,69.7,48.9,110.9C781.3,801.6,643.8,822.6,467.3,822.6z M317.2,560.3c-33.6,0-60.8,37.8-60.8,84.2
		c0,46.5,27.2,84.3,60.8,84.3c33.6,0,60.9-37.8,60.9-84.3C378.1,598,350.9,560.3,317.2,560.3z"/>
</g>
<g id="Layer_2">
	<path fill="#1BB1AE" d="M1242,171.4c0,51.5-32.8,93.6-93.6,93.6c-56.2,0-93.6-42.1-93.6-88.9c0-51.5,37.4-98.3,93.6-98.3
		C1204.6,77.8,1242,119.9,1242,171.4z M1054.8,920.2H1242V311.8h-187.2V920.2z M1691.3,321.2c-98.3,0-154.4,56.2-177.8,93.6h-4.7
		l-9.4-79.6h-168.5c0,51.5,4.7,112.3,4.7,182.5v402.5h187.2V587.9c0-18.7,0-32.8,4.7-46.8c14-32.8,37.4-74.9,88.9-74.9
		c65.5,0,93.6,56.2,93.6,131v322.9h187.2V573.9C1897.2,400.7,1808.3,321.2,1691.3,321.2z"/>
</g>
<g id="Layer_3">
	<path fill="#1BB1AE" d="M2747.1,882.6c-36.4,17.4-69.3,29.5-98.7,36.6c-29.5,6.9-61.4,10.4-95.6,10.4c-38.9,0-73.3-5-103.2-14.9
		c-29.9-10-55.4-24.1-76.5-42.5c-21.1-18.5-35.8-38-43.9-58.7c-8.1-20.7-12.2-50.8-12.2-90.1V421.3h-94V299.4
		c33.4-11,62.1-26.7,85.9-47.3c23.9-20.5,43-45.2,57.4-73.9c14.4-28.7,24.3-65.3,29.8-109.7h121v217.7h201.9v135.1H2517v220.8
		c0,49.9,2.6,82,7.9,96.2c5.2,14.2,14.9,25.5,29.1,33.9c18.9,11.4,40.4,17.2,64.6,17.2c43.1,0,85.9-14.2,128.5-42.5V882.6z"/>
</g>
</svg>
